<mxGraphModel dx="1420" dy="850" grid="1" gridSize="10" guides="1" tooltips="1" connect="1" arrows="1" fold="1" page="1" pageScale="1" pageWidth="827" pageHeight="1169" math="0" shadow="0">
    <root>
        <mxCell id="0" />
        <mxCell id="1" parent="0" />
        <mxCell id="2" value="기안자" style="ellipse;whiteSpace=wrap;html=1;" vertex="1" parent="1">
            <mxGeometry x="100" y="50" width="80" height="40" as="geometry" />
        </mxCell>
        <mxCell id="3" value="결재자" style="ellipse;whiteSpace=wrap;html=1;" vertex="1" parent="1">
            <mxGeometry x="300" y="50" width="80" height="40" as="geometry" />
        </mxCell>
        <mxCell id="4" value="알림 상태 변경" style="ellipse;whiteSpace=wrap;html=1;" vertex="1" parent="1">
            <mxGeometry x="200" y="200" width="100" height="50" as="geometry" />
        </mxCell>
        <mxCell id="5" style="edgeStyle=orthogonalEdgeStyle;endArrow=none;" edge="1" source="2" target="4" parent="1">
            <mxGeometry width="50" height="50" as="geometry" relative="1" />
        </mxCell>
        <mxCell id="6" style="edgeStyle=orthogonalEdgeStyle;endArrow=none;" edge="1" source="3" target="4" parent="1">
            <mxGeometry width="50" height="50" as="geometry" relative="1" />
        </mxCell>
    </root>
</mxGraphModel>
